<svg class="main-svg" xmlns="http://www.w3.org/2000/svg" xmlns:xlink="http://www.w3.org/1999/xlink" width="480" height="460" style="" viewBox="0 0 480 460"><rect x="0" y="0" width="480" height="460" style="fill: rgb(255, 253, 247); fill-opacity: 1;"/><defs id="defs-9c05ed"><g class="clips"><clipPath id="clip9c05edxyplot" class="plotclip"><rect width="380" height="248.2"/></clipPath><clipPath id="clip9c05edxy2plot" class="plotclip"><rect width="380" height="91.25"/></clipPath><clipPath class="axesclip" id="clip9c05edx"><rect x="80" y="0" width="380" height="460"/></clipPath><clipPath class="axesclip" id="clip9c05edy"><rect x="0" y="40" width="480" height="248.2"/></clipPath><clipPath class="axesclip" id="clip9c05edxy"><rect x="80" y="40" width="380" height="248.2"/></clipPath><clipPath class="axesclip" id="clip9c05edy2"><rect x="0" y="313.75" width="480" height="91.25"/></clipPath><clipPath class="axesclip" id="clip9c05edxy2"><rect x="80" y="313.75" width="380" height="91.25"/></clipPath></g><g class="gradients"/><g class="patterns"/></defs><g class="bglayer"><rect class="bg" x="80" y="40" width="380" height="248.2" style="fill: rgb(255, 255, 255); fill-opacity: 1; stroke-width: 0;"/><rect class="bg" x="80" y="313.75" width="380" height="91.25" style="fill: rgb(255, 255, 255); fill-opacity: 1; stroke-width: 0;"/></g><g class="layer-below"><g class="imagelayer"/><g class="shapelayer"/></g><g class="cartesianlayer"><g class="subplot xy"><g class="layer-subplot"><g class="shapelayer"/><g class="imagelayer"/></g><g class="minor-gridlayer"><g class="x"/><g class="y"/></g><g class="gridlayer"><g class="x"><path class="xgrid crisp" transform="translate(103.38,0)" d="M0,40v248.2" style="stroke: rgb(238, 238, 238); stroke-opacity: 1; stroke-width: 1px;"/><path class="xgrid crisp" transform="translate(218.29,0)" d="M0,40v248.2" style="stroke: rgb(238, 238, 238); stroke-opacity: 1; stroke-width: 1px;"/><path class="xgrid crisp" transform="translate(333.2,0)" d="M0,40v248.2" style="stroke: rgb(238, 238, 238); stroke-opacity: 1; stroke-width: 1px;"/><path class="xgrid crisp" transform="translate(448.12,0)" d="M0,40v248.2" style="stroke: rgb(238, 238, 238); stroke-opacity: 1; stroke-width: 1px;"/></g><g class="y"><path class="ygrid crisp" transform="translate(0,273.83000000000004)" d="M80,0h380" style="stroke: rgb(238, 238, 238); stroke-opacity: 1; stroke-width: 1px;"/><path class="ygrid crisp" transform="translate(0,215.56)" d="M80,0h380" style="stroke: rgb(238, 238, 238); stroke-opacity: 1; stroke-width: 1px;"/><path class="ygrid crisp" transform="translate(0,157.29000000000002)" d="M80,0h380" style="stroke: rgb(238, 238, 238); stroke-opacity: 1; stroke-width: 1px;"/><path class="ygrid crisp" transform="translate(0,99.02000000000001)" d="M80,0h380" style="stroke: rgb(238, 238, 238); stroke-opacity: 1; stroke-width: 1px;"/></g></g><g class="zerolinelayer"/><path class="xlines-below"/><path class="ylines-below"/><g class="overlines-below"/><g class="xaxislayer-below"/><g class="yaxislayer-below"/><g class="overaxes-below"/><g class="plot" transform="translate(80,40)" clip-path="url(#clip9c05edxyplot)"><g class="scatterlayer mlayer"><g class="trace scatter traced213ac" style="stroke-miterlimit: 2; opacity: 1;"><g class="fills"/><g class="errorbars"><g class="errorbar"><path class="yerror" d="M20.38,12.41h6m-3,0V47.37m-3,0h6" style="vector-effect: none; stroke-width: 1px; stroke: rgb(31, 59, 115); stroke-opacity: 1;"/></g><g class="errorbar"><path class="yerror" d="M31.869999999999997,24.57h6m-3,0V59.53m-3,0h6" style="vector-effect: none; stroke-width: 1px; stroke: rgb(31, 59, 115); stroke-opacity: 1;"/></g><g class="errorbar"><path class="yerror" d="M43.36,35.8h6m-3,0V70.76m-3,0h6" style="vector-effect: none; stroke-width: 1px; stroke: rgb(31, 59, 115); stroke-opacity: 1;"/></g><g class="errorbar"><path class="yerror" d="M54.85,47.59h6m-3,0V82.55m-3,0h6" style="vector-effect: none; stroke-width: 1px; stroke: rgb(31, 59, 115); stroke-opacity: 1;"/></g><g class="errorbar"><path class="yerror" d="M66.34,60.95h6m-3,0V95.91m-3,0h6" style="vector-effect: none; stroke-width: 1px; stroke: rgb(31, 59, 115); stroke-opacity: 1;"/></g><g class="errorbar"><path class="yerror" d="M77.83,76.22h6m-3,0V111.18m-3,0h6" style="vector-effect: none; stroke-width: 1px; stroke: rgb(31, 59, 115); stroke-opacity: 1;"/></g><g class="errorbar"><path class="yerror" d="M89.32,93.11h6m-3,0V128.07m-3,0h6" style="vector-effect: none; stroke-width: 1px; stroke: rgb(31, 59, 115); stroke-opacity: 1;"/></g><g class="errorbar"><path class="yerror" d="M100.81,110.74h6m-3,0V145.7m-3,0h6" style="vector-effect: none; stroke-width: 1px; stroke: rgb(31, 59, 115); stroke-opacity: 1;"/></g><g class="errorbar"><path class="yerror" d="M112.31,127.87h6m-3,0V162.83m-3,0h6" style="vector-effect: none; stroke-width: 1px; stroke: rgb(31, 59, 115); stroke-opacity: 1;"/></g><g class="errorbar"><path class="yerror" d="M123.8,143.12h6m-3,0V178.08m-3,0h6" style="vector-effect: none; stroke-width: 1px; stroke: rgb(31, 59, 115); stroke-opacity: 1;"/></g><g class="errorbar"><path class="yerror" d="M135.29,155.24h6m-3,0V190.2m-3,0h6" style="vector-effect: none; stroke-width: 1px; stroke: rgb(31, 59, 115); stroke-opacity: 1;"/></g><g class="errorbar"><path class="yerror" d="M146.78,163.38h6m-3,0V198.34m-3,0h6" style="vector-effect: none; stroke-width: 1px; stroke: rgb(31, 59, 115); stroke-opacity: 1;"/></g><g class="errorbar"><path class="yerror" d="M158.27,167.23h6m-3,0V202.19m-3,0h6" style="vector-effect: none; stroke-width: 1px; stroke: rgb(31, 59, 115); stroke-opacity: 1;"/></g><g class="errorbar"><path class="yerror" d="M169.76,167.12h6m-3,0V202.08m-3,0h6" style="vector-effect: none; stroke-width: 1px; stroke: rgb(31, 59, 115); stroke-opacity: 1;"/></g><g class="errorbar"><path class="yerror" d="M181.25,163.93h6m-3,0V198.89m-3,0h6" style="vector-effect: none; stroke-width: 1px; stroke: rgb(31, 59, 115); stroke-opacity: 1;"/></g><g class="errorbar"><path class="yerror" d="M192.75,159.02h6m-3,0V193.98m-3,0h6" style="vector-effect: none; stroke-width: 1px; stroke: rgb(31, 59, 115); stroke-opacity: 1;"/></g><g class="errorbar"><path class="yerror" d="M204.24,153.93h6m-3,0V188.89m-3,0h6" style="vector-effect: none; stroke-width: 1px; stroke: rgb(31, 59, 115); stroke-opacity: 1;"/></g><g class="errorbar"><path class="yerror" d="M215.73,150.17h6m-3,0V185.13m-3,0h6" style="vector-effect: none; stroke-width: 1px; stroke: rgb(31, 59, 115); stroke-opacity: 1;"/></g><g class="errorbar"><path class="yerror" d="M227.22,148.94h6m-3,0V183.91m-3,0h6" style="vector-effect: none; stroke-width: 1px; stroke: rgb(31, 59, 115); stroke-opacity: 1;"/></g><g class="errorbar"><path class="yerror" d="M238.71,150.93h6m-3,0V185.89m-3,0h6" style="vector-effect: none; stroke-width: 1px; stroke: rgb(31, 59, 115); stroke-opacity: 1;"/></g><g class="errorbar"><path class="yerror" d="M250.2,156.2h6m-3,0V191.17m-3,0h6" style="vector-effect: none; stroke-width: 1px; stroke: rgb(31, 59, 115); stroke-opacity: 1;"/></g><g class="errorbar"><path class="yerror" d="M261.69,164.19h6m-3,0V199.15m-3,0h6" style="vector-effect: none; stroke-width: 1px; stroke: rgb(31, 59, 115); stroke-opacity: 1;"/></g><g class="errorbar"><path class="yerror" d="M273.19,173.81h6m-3,0V208.78m-3,0h6" style="vector-effect: none; stroke-width: 1px; stroke: rgb(31, 59, 115); stroke-opacity: 1;"/></g><g class="errorbar"><path class="yerror" d="M284.68,183.65h6m-3,0V218.61m-3,0h6" style="vector-effect: none; stroke-width: 1px; stroke: rgb(31, 59, 115); stroke-opacity: 1;"/></g><g class="errorbar"><path class="yerror" d="M296.17,192.23h6m-3,0V227.19m-3,0h6" style="vector-effect: none; stroke-width: 1px; stroke: rgb(31, 59, 115); stroke-opacity: 1;"/></g><g class="errorbar"><path class="yerror" d="M307.66,198.24h6m-3,0V233.2m-3,0h6" style="vector-effect: none; stroke-width: 1px; stroke: rgb(31, 59, 115); stroke-opacity: 1;"/></g><g class="errorbar"><path class="yerror" d="M319.15,200.83h6m-3,0V235.79m-3,0h6" style="vector-effect: none; stroke-width: 1px; stroke: rgb(31, 59, 115); stroke-opacity: 1;"/></g><g class="errorbar"><path class="yerror" d="M330.64,199.71h6m-3,0V234.67m-3,0h6" style="vector-effect: none; stroke-width: 1px; stroke: rgb(31, 59, 115); stroke-opacity: 1;"/></g><g class="errorbar"><path class="yerror" d="M342.13,195.24h6m-3,0V230.2m-3,0h6" style="vector-effect: none; stroke-width: 1px; stroke: rgb(31, 59, 115); stroke-opacity: 1;"/></g><g class="errorbar"><path class="yerror" d="M353.63,188.33h6m-3,0V223.29m-3,0h6" style="vector-effect: none; stroke-width: 1px; stroke: rgb(31, 59, 115); stroke-opacity: 1;"/></g></g><g class="lines"/><g class="points"><path class="point" transform="translate(23.38,29.89)" d="M3.5,0A3.5,3.5 0 1,1 0,-3.5A3.5,3.5 0 0,1 3.5,0Z" style="opacity: 1; stroke: rgb(31, 59, 115); stroke-opacity: 1; stroke-width: 1.5px; fill: none;"/><path class="point" transform="translate(34.87,42.05)" d="M3.5,0A3.5,3.5 0 1,1 0,-3.5A3.5,3.5 0 0,1 3.5,0Z" style="opacity: 1; stroke: rgb(31, 59, 115); stroke-opacity: 1; stroke-width: 1.5px; fill: none;"/><path class="point" transform="translate(46.36,53.28)" d="M3.5,0A3.5,3.5 0 1,1 0,-3.5A3.5,3.5 0 0,1 3.5,0Z" style="opacity: 1; stroke: rgb(31, 59, 115); stroke-opacity: 1; stroke-width: 1.5px; fill: none;"/><path class="point" transform="translate(57.85,65.07)" d="M3.5,0A3.5,3.5 0 1,1 0,-3.5A3.5,3.5 0 0,1 3.5,0Z" style="opacity: 1; stroke: rgb(31, 59, 115); stroke-opacity: 1; stroke-width: 1.5px; fill: none;"/><path class="point" transform="translate(69.34,78.43)" d="M3.5,0A3.5,3.5 0 1,1 0,-3.5A3.5,3.5 0 0,1 3.5,0Z" style="opacity: 1; stroke: rgb(31, 59, 115); stroke-opacity: 1; stroke-width: 1.5px; fill: none;"/><path class="point" transform="translate(80.83,93.7)" d="M3.5,0A3.5,3.5 0 1,1 0,-3.5A3.5,3.5 0 0,1 3.5,0Z" style="opacity: 1; stroke: rgb(31, 59, 115); stroke-opacity: 1; stroke-width: 1.5px; fill: none;"/><path class="point" transform="translate(92.32,110.59)" d="M3.5,0A3.5,3.5 0 1,1 0,-3.5A3.5,3.5 0 0,1 3.5,0Z" style="opacity: 1; stroke: rgb(31, 59, 115); stroke-opacity: 1; stroke-width: 1.5px; fill: none;"/><path class="point" transform="translate(103.81,128.22)" d="M3.5,0A3.5,3.5 0 1,1 0,-3.5A3.5,3.5 0 0,1 3.5,0Z" style="opacity: 1; stroke: rgb(31, 59, 115); stroke-opacity: 1; stroke-width: 1.5px; fill: none;"/><path class="point" transform="translate(115.31,145.35)" d="M3.5,0A3.5,3.5 0 1,1 0,-3.5A3.5,3.5 0 0,1 3.5,0Z" style="opacity: 1; stroke: rgb(31, 59, 115); stroke-opacity: 1; stroke-width: 1.5px; fill: none;"/><path class="point" transform="translate(126.8,160.6)" d="M3.5,0A3.5,3.5 0 1,1 0,-3.5A3.5,3.5 0 0,1 3.5,0Z" style="opacity: 1; stroke: rgb(31, 59, 115); stroke-opacity: 1; stroke-width: 1.5px; fill: none;"/><path class="point" transform="translate(138.29,172.72)" d="M3.5,0A3.5,3.5 0 1,1 0,-3.5A3.5,3.5 0 0,1 3.5,0Z" style="opacity: 1; stroke: rgb(31, 59, 115); stroke-opacity: 1; stroke-width: 1.5px; fill: none;"/><path class="point" transform="translate(149.78,180.86)" d="M3.5,0A3.5,3.5 0 1,1 0,-3.5A3.5,3.5 0 0,1 3.5,0Z" style="opacity: 1; stroke: rgb(31, 59, 115); stroke-opacity: 1; stroke-width: 1.5px; fill: none;"/><path class="point" transform="translate(161.27,184.71)" d="M3.5,0A3.5,3.5 0 1,1 0,-3.5A3.5,3.5 0 0,1 3.5,0Z" style="opacity: 1; stroke: rgb(31, 59, 115); stroke-opacity: 1; stroke-width: 1.5px; fill: none;"/><path class="point" transform="translate(172.76,184.6)" d="M3.5,0A3.5,3.5 0 1,1 0,-3.5A3.5,3.5 0 0,1 3.5,0Z" style="opacity: 1; stroke: rgb(31, 59, 115); stroke-opacity: 1; stroke-width: 1.5px; fill: none;"/><path class="point" transform="translate(184.25,181.41)" d="M3.5,0A3.5,3.5 0 1,1 0,-3.5A3.5,3.5 0 0,1 3.5,0Z" style="opacity: 1; stroke: rgb(31, 59, 115); stroke-opacity: 1; stroke-width: 1.5px; fill: none;"/><path class="point" transform="translate(195.75,176.5)" d="M3.5,0A3.5,3.5 0 1,1 0,-3.5A3.5,3.5 0 0,1 3.5,0Z" style="opacity: 1; stroke: rgb(31, 59, 115); stroke-opacity: 1; stroke-width: 1.5px; fill: none;"/><path class="point" transform="translate(207.24,171.41)" d="M3.5,0A3.5,3.5 0 1,1 0,-3.5A3.5,3.5 0 0,1 3.5,0Z" style="opacity: 1; stroke: rgb(31, 59, 115); stroke-opacity: 1; stroke-width: 1.5px; fill: none;"/><path class="point" transform="translate(218.73,167.65)" d="M3.5,0A3.5,3.5 0 1,1 0,-3.5A3.5,3.5 0 0,1 3.5,0Z" style="opacity: 1; stroke: rgb(31, 59, 115); stroke-opacity: 1; stroke-width: 1.5px; fill: none;"/><path class="point" transform="translate(230.22,166.42)" d="M3.5,0A3.5,3.5 0 1,1 0,-3.5A3.5,3.5 0 0,1 3.5,0Z" style="opacity: 1; stroke: rgb(31, 59, 115); stroke-opacity: 1; stroke-width: 1.5px; fill: none;"/><path class="point" transform="translate(241.71,168.41)" d="M3.5,0A3.5,3.5 0 1,1 0,-3.5A3.5,3.5 0 0,1 3.5,0Z" style="opacity: 1; stroke: rgb(31, 59, 115); stroke-opacity: 1; stroke-width: 1.5px; fill: none;"/><path class="point" transform="translate(253.2,173.68)" d="M3.5,0A3.5,3.5 0 1,1 0,-3.5A3.5,3.5 0 0,1 3.5,0Z" style="opacity: 1; stroke: rgb(31, 59, 115); stroke-opacity: 1; stroke-width: 1.5px; fill: none;"/><path class="point" transform="translate(264.69,181.67)" d="M3.5,0A3.5,3.5 0 1,1 0,-3.5A3.5,3.5 0 0,1 3.5,0Z" style="opacity: 1; stroke: rgb(31, 59, 115); stroke-opacity: 1; stroke-width: 1.5px; fill: none;"/><path class="point" transform="translate(276.19,191.3)" d="M3.5,0A3.5,3.5 0 1,1 0,-3.5A3.5,3.5 0 0,1 3.5,0Z" style="opacity: 1; stroke: rgb(31, 59, 115); stroke-opacity: 1; stroke-width: 1.5px; fill: none;"/><path class="point" transform="translate(287.68,201.13)" d="M3.5,0A3.5,3.5 0 1,1 0,-3.5A3.5,3.5 0 0,1 3.5,0Z" style="opacity: 1; stroke: rgb(31, 59, 115); stroke-opacity: 1; stroke-width: 1.5px; fill: none;"/><path class="point" transform="translate(299.17,209.71)" d="M3.5,0A3.5,3.5 0 1,1 0,-3.5A3.5,3.5 0 0,1 3.5,0Z" style="opacity: 1; stroke: rgb(31, 59, 115); stroke-opacity: 1; stroke-width: 1.5px; fill: none;"/><path class="point" transform="translate(310.66,215.72)" d="M3.5,0A3.5,3.5 0 1,1 0,-3.5A3.5,3.5 0 0,1 3.5,0Z" style="opacity: 1; stroke: rgb(31, 59, 115); stroke-opacity: 1; stroke-width: 1.5px; fill: none;"/><path class="point" transform="translate(322.15,218.31)" d="M3.5,0A3.5,3.5 0 1,1 0,-3.5A3.5,3.5 0 0,1 3.5,0Z" style="opacity: 1; stroke: rgb(31, 59, 115); stroke-opacity: 1; stroke-width: 1.5px; fill: none;"/><path class="point" transform="translate(333.64,217.19)" d="M3.5,0A3.5,3.5 0 1,1 0,-3.5A3.5,3.5 0 0,1 3.5,0Z" style="opacity: 1; stroke: rgb(31, 59, 115); stroke-opacity: 1; stroke-width: 1.5px; fill: none;"/><path class="point" transform="translate(345.13,212.72)" d="M3.5,0A3.5,3.5 0 1,1 0,-3.5A3.5,3.5 0 0,1 3.5,0Z" style="opacity: 1; stroke: rgb(31, 59, 115); stroke-opacity: 1; stroke-width: 1.5px; fill: none;"/><path class="point" transform="translate(356.63,205.81)" d="M3.5,0A3.5,3.5 0 1,1 0,-3.5A3.5,3.5 0 0,1 3.5,0Z" style="opacity: 1; stroke: rgb(31, 59, 115); stroke-opacity: 1; stroke-width: 1.5px; fill: none;"/></g><g class="text"/></g><g class="trace scatter trace85cb8d" style="stroke-miterlimit: 2; opacity: 1;"><g class="fills"/><g class="errorbars"/><g class="lines"><path class="js-line" d="M23.38,29.89L35.04,50.72L36.71,53.49L50.04,73.9L51.7,76.24L65.03,93.58L66.7,95.58L80.03,110.31L81.69,112L96.69,125.95L98.36,127.37L113.35,139.01L115.02,140.19L130.01,149.9L131.68,150.88L148.34,159.8L150.01,160.61L168.34,168.58L170.01,169.23L191.67,176.67L193.33,177.18L216.66,183.34L218.33,183.73L246.65,189.29L248.32,189.56L276.65,193.58L278.31,193.78L318.3,197.63L319.97,197.75L356.63,200.04" style="vector-effect: none; fill: none; stroke: rgb(192, 57, 43); stroke-opacity: 1; stroke-width: 2px; opacity: 1;"/></g><g class="points"/><g class="text"/></g></g></g><g class="overplot"/><path class="xlines-above crisp" d="M0,0" style="fill: none;"/><path class="ylines-above crisp" d="M79.5,40V288.2M460.5,40V288.2" style="fill: none; stroke-width: 1px; stroke: rgb(0, 0, 0); stroke-opacity: 1;"/><g class="overlines-above"/><g class="xaxislayer-above"/><g class="yaxislayer-above"><path class="ytick ticks crisp" d="M79,0h-5" transform="translate(0,273.83000000000004)" style="stroke: rgb(0, 0, 0); stroke-opacity: 1; stroke-width: 1px;"/><path class="ytick ticks crisp" d="M79,0h-5" transform="translate(0,215.56)" style="stroke: rgb(0, 0, 0); stroke-opacity: 1; stroke-width: 1px;"/><path class="ytick ticks crisp" d="M79,0h-5" transform="translate(0,157.29000000000002)" style="stroke: rgb(0, 0, 0); stroke-opacity: 1; stroke-width: 1px;"/><path class="ytick ticks crisp" d="M79,0h-5" transform="translate(0,99.02000000000001)" style="stroke: rgb(0, 0, 0); stroke-opacity: 1; stroke-width: 1px;"/><path class="ytick ticks crisp" d="M79,0h-5" transform="translate(0,40.76)" style="stroke: rgb(0, 0, 0); stroke-opacity: 1; stroke-width: 1px;"/><g class="ytick"><text text-anchor="end" x="71.6" y="4.199999999999999" transform="translate(0,273.83000000000004)" style="font-family: 'Courier New', Courier, 'Nimbus Mono PS', 'Liberation Mono', 'DejaVu Sans Mono', monospace; font-size: 12px; fill: rgb(34, 34, 34); fill-opacity: 1; white-space: pre; opacity: 1;">0.0</text></g><g class="ytick"><text text-anchor="end" x="71.6" y="4.199999999999999" style="font-family: 'Courier New', Courier, 'Nimbus Mono PS', 'Liberation Mono', 'DejaVu Sans Mono', monospace; font-size: 12px; fill: rgb(34, 34, 34); fill-opacity: 1; white-space: pre; opacity: 1;" transform="translate(0,215.56)">1.0</text></g><g class="ytick"><text text-anchor="end" x="71.6" y="4.199999999999999" style="font-family: 'Courier New', Courier, 'Nimbus Mono PS', 'Liberation Mono', 'DejaVu Sans Mono', monospace; font-size: 12px; fill: rgb(34, 34, 34); fill-opacity: 1; white-space: pre; opacity: 1;" transform="translate(0,157.29000000000002)">2.0</text></g><g class="ytick"><text text-anchor="end" x="71.6" y="4.199999999999999" style="font-family: 'Courier New', Courier, 'Nimbus Mono PS', 'Liberation Mono', 'DejaVu Sans Mono', monospace; font-size: 12px; fill: rgb(34, 34, 34); fill-opacity: 1; white-space: pre; opacity: 1;" transform="translate(0,99.02000000000001)">3.0</text></g><g class="ytick"><text text-anchor="end" x="71.6" y="4.199999999999999" style="font-family: 'Courier New', Courier, 'Nimbus Mono PS', 'Liberation Mono', 'DejaVu Sans Mono', monospace; font-size: 12px; fill: rgb(34, 34, 34); fill-opacity: 1; white-space: pre; opacity: 1;" transform="translate(0,40.76)">4.0</text></g></g><g class="overaxes-above"/></g><g class="subplot xy2"><g class="layer-subplot"><g class="shapelayer"/><g class="imagelayer"/></g><g class="minor-gridlayer"><g class="x"/><g class="y2"/></g><g class="gridlayer"><g class="x"><path class="xgrid crisp" transform="translate(103.38,0)" d="M0,313.75v91.25" style="stroke: rgb(238, 238, 238); stroke-opacity: 1; stroke-width: 1px;"/><path class="xgrid crisp" transform="translate(218.29,0)" d="M0,313.75v91.25" style="stroke: rgb(238, 238, 238); stroke-opacity: 1; stroke-width: 1px;"/><path class="xgrid crisp" transform="translate(333.2,0)" d="M0,313.75v91.25" style="stroke: rgb(238, 238, 238); stroke-opacity: 1; stroke-width: 1px;"/><path class="xgrid crisp" transform="translate(448.12,0)" d="M0,313.75v91.25" style="stroke: rgb(238, 238, 238); stroke-opacity: 1; stroke-width: 1px;"/></g><g class="y2"><path class="y2grid crisp" transform="translate(0,402.76)" d="M80,0h380" style="stroke: rgb(238, 238, 238); stroke-opacity: 1; stroke-width: 1px;"/><path class="y2grid crisp" transform="translate(0,380.99)" d="M80,0h380" style="stroke: rgb(238, 238, 238); stroke-opacity: 1; stroke-width: 1px;"/><path class="y2grid crisp" transform="translate(0,359.23)" d="M80,0h380" style="stroke: rgb(238, 238, 238); stroke-opacity: 1; stroke-width: 1px;"/><path class="y2grid crisp" transform="translate(0,337.47)" d="M80,0h380" style="stroke: rgb(238, 238, 238); stroke-opacity: 1; stroke-width: 1px;"/><path class="y2grid crisp" transform="translate(0,315.71)" d="M80,0h380" style="stroke: rgb(238, 238, 238); stroke-opacity: 1; stroke-width: 1px;"/></g></g><g class="zerolinelayer"/><path class="xlines-below"/><path class="ylines-below"/><g class="overlines-below"/><g class="xaxislayer-below"/><g class="yaxislayer-below"/><g class="overaxes-below"/><g class="plot" transform="translate(80,313.75)" clip-path="url(#clip9c05edxy2plot)"><g class="scatterlayer mlayer"><g class="trace scatter tracee80817" style="stroke-miterlimit: 2; opacity: 1;"><g class="fills"/><g class="errorbars"/><g class="lines"/><g class="points"><path class="point" transform="translate(23.38,45.48)" d="M2.5,2.5H-2.5V-2.5H2.5Z" style="opacity: 1; stroke-width: 0px; fill: rgb(31, 59, 115); fill-opacity: 1;"/><path class="point" transform="translate(34.87,29.84)" d="M2.5,2.5H-2.5V-2.5H2.5Z" style="opacity: 1; stroke-width: 0px; fill: rgb(31, 59, 115); fill-opacity: 1;"/><path class="point" transform="translate(46.36,16.95)" d="M2.5,2.5H-2.5V-2.5H2.5Z" style="opacity: 1; stroke-width: 0px; fill: rgb(31, 59, 115); fill-opacity: 1;"/><path class="point" transform="translate(57.85,9.11)" d="M2.5,2.5H-2.5V-2.5H2.5Z" style="opacity: 1; stroke-width: 0px; fill: rgb(31, 59, 115); fill-opacity: 1;"/><path class="point" transform="translate(69.34,7.69)" d="M2.5,2.5H-2.5V-2.5H2.5Z" style="opacity: 1; stroke-width: 0px; fill: rgb(31, 59, 115); fill-opacity: 1;"/><path class="point" transform="translate(80.83,12.94)" d="M2.5,2.5H-2.5V-2.5H2.5Z" style="opacity: 1; stroke-width: 0px; fill: rgb(31, 59, 115); fill-opacity: 1;"/><path class="point" transform="translate(92.32,23.95)" d="M2.5,2.5H-2.5V-2.5H2.5Z" style="opacity: 1; stroke-width: 0px; fill: rgb(31, 59, 115); fill-opacity: 1;"/><path class="point" transform="translate(103.81,38.76)" d="M2.5,2.5H-2.5V-2.5H2.5Z" style="opacity: 1; stroke-width: 0px; fill: rgb(31, 59, 115); fill-opacity: 1;"/><path class="point" transform="translate(115.31,54.75)" d="M2.5,2.5H-2.5V-2.5H2.5Z" style="opacity: 1; stroke-width: 0px; fill: rgb(31, 59, 115); fill-opacity: 1;"/><path class="point" transform="translate(126.8,69.11)" d="M2.5,2.5H-2.5V-2.5H2.5Z" style="opacity: 1; stroke-width: 0px; fill: rgb(31, 59, 115); fill-opacity: 1;"/><path class="point" transform="translate(138.29,79.3)" d="M2.5,2.5H-2.5V-2.5H2.5Z" style="opacity: 1; stroke-width: 0px; fill: rgb(31, 59, 115); fill-opacity: 1;"/><path class="point" transform="translate(149.78,83.51)" d="M2.5,2.5H-2.5V-2.5H2.5Z" style="opacity: 1; stroke-width: 0px; fill: rgb(31, 59, 115); fill-opacity: 1;"/><path class="point" transform="translate(161.27,81.01)" d="M2.5,2.5H-2.5V-2.5H2.5Z" style="opacity: 1; stroke-width: 0px; fill: rgb(31, 59, 115); fill-opacity: 1;"/><path class="point" transform="translate(172.76,72.23)" d="M2.5,2.5H-2.5V-2.5H2.5Z" style="opacity: 1; stroke-width: 0px; fill: rgb(31, 59, 115); fill-opacity: 1;"/><path class="point" transform="translate(184.25,58.73)" d="M2.5,2.5H-2.5V-2.5H2.5Z" style="opacity: 1; stroke-width: 0px; fill: rgb(31, 59, 115); fill-opacity: 1;"/><path class="point" transform="translate(195.75,42.89)" d="M2.5,2.5H-2.5V-2.5H2.5Z" style="opacity: 1; stroke-width: 0px; fill: rgb(31, 59, 115); fill-opacity: 1;"/><path class="point" transform="translate(207.24,27.5)" d="M2.5,2.5H-2.5V-2.5H2.5Z" style="opacity: 1; stroke-width: 0px; fill: rgb(31, 59, 115); fill-opacity: 1;"/><path class="point" transform="translate(218.73,15.3)" d="M2.5,2.5H-2.5V-2.5H2.5Z" style="opacity: 1; stroke-width: 0px; fill: rgb(31, 59, 115); fill-opacity: 1;"/><path class="point" transform="translate(230.22,8.42)" d="M2.5,2.5H-2.5V-2.5H2.5Z" style="opacity: 1; stroke-width: 0px; fill: rgb(31, 59, 115); fill-opacity: 1;"/><path class="point" transform="translate(241.71,8.09)" d="M2.5,2.5H-2.5V-2.5H2.5Z" style="opacity: 1; stroke-width: 0px; fill: rgb(31, 59, 115); fill-opacity: 1;"/><path class="point" transform="translate(253.2,14.37)" d="M2.5,2.5H-2.5V-2.5H2.5Z" style="opacity: 1; stroke-width: 0px; fill: rgb(31, 59, 115); fill-opacity: 1;"/><path class="point" transform="translate(264.69,26.14)" d="M2.5,2.5H-2.5V-2.5H2.5Z" style="opacity: 1; stroke-width: 0px; fill: rgb(31, 59, 115); fill-opacity: 1;"/><path class="point" transform="translate(276.19,41.33)" d="M2.5,2.5H-2.5V-2.5H2.5Z" style="opacity: 1; stroke-width: 0px; fill: rgb(31, 59, 115); fill-opacity: 1;"/><path class="point" transform="translate(287.68,57.25)" d="M2.5,2.5H-2.5V-2.5H2.5Z" style="opacity: 1; stroke-width: 0px; fill: rgb(31, 59, 115); fill-opacity: 1;"/><path class="point" transform="translate(299.17,71.09)" d="M2.5,2.5H-2.5V-2.5H2.5Z" style="opacity: 1; stroke-width: 0px; fill: rgb(31, 59, 115); fill-opacity: 1;"/><path class="point" transform="translate(310.66,80.41)" d="M2.5,2.5H-2.5V-2.5H2.5Z" style="opacity: 1; stroke-width: 0px; fill: rgb(31, 59, 115); fill-opacity: 1;"/><path class="point" transform="translate(322.15,83.56)" d="M2.5,2.5H-2.5V-2.5H2.5Z" style="opacity: 1; stroke-width: 0px; fill: rgb(31, 59, 115); fill-opacity: 1;"/><path class="point" transform="translate(333.64,79.99)" d="M2.5,2.5H-2.5V-2.5H2.5Z" style="opacity: 1; stroke-width: 0px; fill: rgb(31, 59, 115); fill-opacity: 1;"/><path class="point" transform="translate(345.13,70.32)" d="M2.5,2.5H-2.5V-2.5H2.5Z" style="opacity: 1; stroke-width: 0px; fill: rgb(31, 59, 115); fill-opacity: 1;"/><path class="point" transform="translate(356.63,56.26)" d="M2.5,2.5H-2.5V-2.5H2.5Z" style="opacity: 1; stroke-width: 0px; fill: rgb(31, 59, 115); fill-opacity: 1;"/></g><g class="text"/></g><g class="trace scatter trace631eaa" style="stroke-miterlimit: 2; opacity: 1;"><g class="fills"/><g class="errorbars"/><g class="lines"><path class="js-line" d="M23.38,45.48L356.63,45.48" style="vector-effect: none; fill: none; stroke: rgb(119, 119, 119); stroke-opacity: 1; stroke-dasharray: 9px, 9px; stroke-width: 1px; opacity: 1;"/></g><g class="points"/><g class="text"/></g></g></g><g class="overplot"/><path class="xlines-above crisp" d="M79,405.5H461M79,313.25H461" style="fill: none; stroke-width: 1px; stroke: rgb(0, 0, 0); stroke-opacity: 1;"/><path class="ylines-above crisp" d="M79.5,313.75V405M460.5,313.75V405" style="fill: none; stroke-width: 1px; stroke: rgb(0, 0, 0); stroke-opacity: 1;"/><g class="overlines-above"/><g class="xaxislayer-above"><path class="xtick ticks crisp" d="M0,406v5" transform="translate(103.38,0)" style="stroke: rgb(0, 0, 0); stroke-opacity: 1; stroke-width: 1px;"/><path class="xtick ticks crisp" d="M0,406v5" transform="translate(218.29,0)" style="stroke: rgb(0, 0, 0); stroke-opacity: 1; stroke-width: 1px;"/><path class="xtick ticks crisp" d="M0,406v5" transform="translate(333.2,0)" style="stroke: rgb(0, 0, 0); stroke-opacity: 1; stroke-width: 1px;"/><path class="xtick ticks crisp" d="M0,406v5" transform="translate(448.12,0)" style="stroke: rgb(0, 0, 0); stroke-opacity: 1; stroke-width: 1px;"/><g class="xtick"><text text-anchor="middle" x="0" y="425.4" transform="translate(103.38,0)" style="font-family: 'Courier New', Courier, 'Nimbus Mono PS', 'Liberation Mono', 'DejaVu Sans Mono', monospace; font-size: 12px; fill: rgb(34, 34, 34); fill-opacity: 1; white-space: pre; opacity: 1;">0</text></g><g class="xtick"><text text-anchor="middle" x="0" y="425.4" style="font-family: 'Courier New', Courier, 'Nimbus Mono PS', 'Liberation Mono', 'DejaVu Sans Mono', monospace; font-size: 12px; fill: rgb(34, 34, 34); fill-opacity: 1; white-space: pre; opacity: 1;" transform="translate(218.29,0)">5</text></g><g class="xtick"><text text-anchor="middle" x="0" y="425.4" style="font-family: 'Courier New', Courier, 'Nimbus Mono PS', 'Liberation Mono', 'DejaVu Sans Mono', monospace; font-size: 12px; fill: rgb(34, 34, 34); fill-opacity: 1; white-space: pre; opacity: 1;" transform="translate(333.2,0)">10</text></g><g class="xtick"><text text-anchor="middle" x="0" y="425.4" style="font-family: 'Courier New', Courier, 'Nimbus Mono PS', 'Liberation Mono', 'DejaVu Sans Mono', monospace; font-size: 12px; fill: rgb(34, 34, 34); fill-opacity: 1; white-space: pre; opacity: 1;" transform="translate(448.12,0)">15</text></g></g><g class="yaxislayer-above"><path class="y2tick ticks crisp" d="M79,0h-5" transform="translate(0,402.76)" style="stroke: rgb(0, 0, 0); stroke-opacity: 1; stroke-width: 1px;"/><path class="y2tick ticks crisp" d="M79,0h-5" transform="translate(0,380.99)" style="stroke: rgb(0, 0, 0); stroke-opacity: 1; stroke-width: 1px;"/><path class="y2tick ticks crisp" d="M79,0h-5" transform="translate(0,359.23)" style="stroke: rgb(0, 0, 0); stroke-opacity: 1; stroke-width: 1px;"/><path class="y2tick ticks crisp" d="M79,0h-5" transform="translate(0,337.47)" style="stroke: rgb(0, 0, 0); stroke-opacity: 1; stroke-width: 1px;"/><path class="y2tick ticks crisp" d="M79,0h-5" transform="translate(0,315.71)" style="stroke: rgb(0, 0, 0); stroke-opacity: 1; stroke-width: 1px;"/><g class="y2tick"><text text-anchor="end" x="71.6" y="4.199999999999999" transform="translate(0,402.76)" style="font-family: 'Courier New', Courier, 'Nimbus Mono PS', 'Liberation Mono', 'DejaVu Sans Mono', monospace; font-size: 12px; fill: rgb(34, 34, 34); fill-opacity: 1; white-space: pre; opacity: 1;">−0.4</text></g><g class="y2tick"><text text-anchor="end" x="71.6" y="4.199999999999999" style="font-family: 'Courier New', Courier, 'Nimbus Mono PS', 'Liberation Mono', 'DejaVu Sans Mono', monospace; font-size: 12px; fill: rgb(34, 34, 34); fill-opacity: 1; white-space: pre; opacity: 1;" transform="translate(0,380.99)">−0.2</text></g><g class="y2tick"><text text-anchor="end" x="71.6" y="4.199999999999999" style="font-family: 'Courier New', Courier, 'Nimbus Mono PS', 'Liberation Mono', 'DejaVu Sans Mono', monospace; font-size: 12px; fill: rgb(34, 34, 34); fill-opacity: 1; white-space: pre; opacity: 1;" transform="translate(0,359.23)">0</text></g><g class="y2tick"><text text-anchor="end" x="71.6" y="4.199999999999999" style="font-family: 'Courier New', Courier, 'Nimbus Mono PS', 'Liberation Mono', 'DejaVu Sans Mono', monospace; font-size: 12px; fill: rgb(34, 34, 34); fill-opacity: 1; white-space: pre; opacity: 1;" transform="translate(0,337.47)">0.2</text></g><g class="y2tick"><text text-anchor="end" x="71.6" y="4.199999999999999" style="font-family: 'Courier New', Courier, 'Nimbus Mono PS', 'Liberation Mono', 'DejaVu Sans Mono', monospace; font-size: 12px; fill: rgb(34, 34, 34); fill-opacity: 1; white-space: pre; opacity: 1;" transform="translate(0,315.71)">0.4</text></g></g><g class="overaxes-above"/></g></g><g class="polarlayer"/><g class="smithlayer"/><g class="ternarylayer"/><g class="geolayer"/><g class="funnelarealayer"/><g class="pielayer"/><g class="iciclelayer"/><g class="treemaplayer"/><g class="sunburstlayer"/><g class="glimages"/><defs id="topdefs-9c05ed"><g class="clips"/><clipPath id="legend9c05ed"><rect width="116" height="48" x="1" y="1"/></clipPath></defs><g class="layer-above"><g class="imagelayer"/><g class="shapelayer"/></g><g class="infolayer"><g class="legend" pointer-events="all" transform="translate(334.4,47.300000000000004)"><rect class="bg" shape-rendering="crispEdges" width="117" height="49" x="0.5" y="0.5" style="stroke: rgb(204, 204, 204); stroke-opacity: 1; fill: rgb(255, 255, 255); fill-opacity: 1; stroke-width: 1px;"/><g class="scrollbox" transform="" clip-path="url(#legend9c05ed)"><g class="groups"><g class="traces" transform="translate(1,15.5)" style="opacity: 1;"><text class="legendtext" text-anchor="start" x="40" y="4.680000000000001" style="font-family: 'Times New Roman', Times, 'Nimbus Roman', 'Liberation Serif', 'DejaVu Serif', serif; font-size: 12px; fill: rgb(34, 34, 34); fill-opacity: 1; white-space: pre;">data</text><g class="layers" style="opacity: 1;"><g class="legendfill"/><g class="legendlines"/><g class="legendsymbols"><g class="legendpoints"><path class="scatterpts" transform="translate(20,0)" d="M3.5,0A3.5,3.5 0 1,1 0,-3.5A3.5,3.5 0 0,1 3.5,0Z" style="opacity: 1; stroke: rgb(31, 59, 115); stroke-opacity: 1; stroke-width: 1.5px; fill: none;"/></g></g></g><rect class="legendtoggle" x="0" y="-9.5" width="110.046875" height="19" style="fill: rgb(0, 0, 0); fill-opacity: 0;"/></g><g class="traces" transform="translate(1,34.5)" style="opacity: 1;"><text class="legendtext" text-anchor="start" x="40" y="4.680000000000001" style="font-family: 'Times New Roman', Times, 'Nimbus Roman', 'Liberation Serif', 'DejaVu Serif', serif; font-size: 12px; fill: rgb(34, 34, 34); fill-opacity: 1; white-space: pre;">fit: A·e​<tspan style="font-size:70%" dy="-0.6em">−t/τ</tspan><tspan dy="0.42em">​</tspan> + y​<tspan style="font-size:70%" dy="0.3em">0</tspan><tspan dy="-0.21em">​</tspan></text><g class="layers" style="opacity: 1;"><g class="legendfill"/><g class="legendlines"><path class="js-line" d="M5,0h30" style="fill: none; stroke: rgb(192, 57, 43); stroke-opacity: 1; stroke-width: 2px;"/></g><g class="legendsymbols"><g class="legendpoints"/></g></g><rect class="legendtoggle" x="0" y="-9.5" width="110.046875" height="19" style="fill: rgb(0, 0, 0); fill-opacity: 0;"/></g></g></g><rect class="scrollbar" rx="20" ry="3" width="0" height="0" x="0" y="0" style="fill: rgb(128, 139, 164); fill-opacity: 1;"/></g><g class="g-gtitle"><text class="gtitle" x="240" y="20" text-anchor="middle" dy="0em" style="font-family: Arial, Helvetica, 'Liberation Sans', 'DejaVu Sans', sans-serif; font-size: 15px; fill: rgb(34, 34, 34); opacity: 1; font-weight: normal; white-space: pre;"><tspan style="font-weight:bold">Fit</tspan> and <tspan style="font-style:italic">residuals</tspan> (χ²/ν = 1.02)</text></g><g class="g-xtitle" transform="translate(0,-1)"><text class="xtitle" x="270" y="457" text-anchor="middle" style="font-family: 'Courier New', Courier, 'Nimbus Mono PS', 'Liberation Mono', 'DejaVu Sans Mono', monospace; font-size: 14px; fill: rgb(34, 34, 34); opacity: 1; font-weight: normal; white-space: pre;">Time (ms)</text></g><g class="g-ytitle"><text class="ytitle" transform="rotate(-90,42,164.1)" x="42" y="164.1" text-anchor="middle" style="font-family: 'Courier New', Courier, 'Nimbus Mono PS', 'Liberation Mono', 'DejaVu Sans Mono', monospace; font-size: 14px; fill: rgb(34, 34, 34); opacity: 1; font-weight: normal; white-space: pre;">Signal μ​<tspan style="font-size:70%" dy="0.3em">0</tspan><tspan dy="-0.21em">​</tspan>H (mT)</text></g><g class="g-y2title" transform="translate(-5.212890625,0)"><text class="y2title" transform="rotate(-90,42,359.375)" x="42" y="359.375" text-anchor="middle" style="font-family: 'Courier New', Courier, 'Nimbus Mono PS', 'Liberation Mono', 'DejaVu Sans Mono', monospace; font-size: 14px; fill: rgb(34, 34, 34); opacity: 1; font-weight: normal; white-space: pre;">Resid.</text></g><g class="annotation" data-index="0" style="opacity: 1;"><g class="annotation-text-g" transform="rotate(0,327.24,92.33)"><g class="cursor-pointer" transform="translate(286,75)"><rect class="bg" x="0.5" y="0.5" width="81" height="33" style="stroke-width: 1px; stroke: rgb(136, 136, 136); stroke-opacity: 1; fill: rgb(255, 255, 255); fill-opacity: 1;"/><text class="annotation-text" text-anchor="middle" x="40.59375" y="13" style="font-family: 'Times New Roman', Times, 'Nimbus Roman', 'Liberation Serif', 'DejaVu Serif', serif; font-size: 12px; fill: rgb(34, 34, 34); fill-opacity: 1; white-space: pre;"><tspan class="line" dy="0em" x="40.59375" y="13">τ = 4.0 ± 0.2 ms</tspan><tspan class="line" dy="1.3em" x="40.59375" y="13">R​<tspan style="font-size:70%" dy="-0.6em">2</tspan><tspan dy="0.42em">​</tspan> = 0.987</tspan></text></g></g><g class="annotation-arrow-g" style="opacity: 1;"><path d="M305.24,108.83L287.24,122.33" style="stroke-width: 2px; stroke: rgb(136, 136, 136); stroke-opacity: 1; stroke-dasharray: 0px, 0px, 19.9px, 22.5px;"/><path d="M-3.7,-2.5V2.5L1.3,0Z" transform="translate(289.3199768066406,120.77000427246094)rotate(143.12660487036632)scale(2)" style="fill: rgb(136, 136, 136); stroke-width: 0;"/></g></g></g></svg>